<?xml version="1.0" encoding="UTF-8"?>
<svg width="128" height="128" viewBox="0 0 128 128" xmlns="http://www.w3.org/2000/svg">
  <!-- 背景 -->
  <rect width="128" height="128" rx="24" fill="#2563eb"/>
  
  <!-- 文件图标 -->
  <g transform="translate(24, 24)">
    <rect x="0" y="0" width="80" height="80" rx="8" fill="white" opacity="0.9"/>
    <rect x="72" y="0" width="8" height="8" fill="#e5e7eb"/>
    
    <!-- CSV网格线 -->
    <g stroke="#9ca3af" stroke-width="1" opacity="0.7">
      <line x1="20" y1="20" x2="60" y2="20"/>
      <line x1="20" y1="30" x2="60" y2="30"/>
      <line x1="20" y1="40" x2="60" y2="40"/>
      <line x1="20" y1="50" x2="60" y2="50"/>
      <line x1="20" y1="60" x2="60" y2="60"/>
      
      <line x1="33" y1="20" x2="33" y2="60"/>
      <line x1="47" y1="20" x2="47" y2="60"/>
    </g>
    
    <!-- 分割箭头 -->
    <g transform="translate(40, 65)" fill="#2563eb">
      <path d="M-8 0 L0 -6 L8 0 L6 0 L6 6 L-6 6 L-6 0 Z" opacity="0.8"/>
    </g>
  </g>
</svg>